<svg xmlns="http://www.w3.org/2000/svg" width="128" height="128" viewBox="0 0 128 128">
  <title>OWL </title>
  <g>
    <g>
      <path d="M117.077,59.333C117.077,88.647,93.314,121.5,64,121.5S10.923,88.647,10.923,59.333,34.686,15.346,64,15.346,117.077,30.02,117.077,59.333Z" fill="#f4a86c"/>
      <path d="M105.25,58.9c0,13.678-9.519,25.1-22.7,25.1C73.832,84,67.534,78.169,64,72.8,60.466,78.169,54.168,84,45.45,84c-13.181,0-22.7-11.425-22.7-25.1,0-15.827,10.681-25.346,23.862-25.346,6.863,0,13.034,3.573,17.388,8.377,4.354-4.8,10.525-8.377,17.388-8.377C94.569,33.551,105.25,43.07,105.25,58.9Z" fill="#663325"/>
      <path d="M106.86,31.22a18.3,18.3,0,0,1-9.96,5.13c-10.15,2.05-28.23,3.18-32.9,10-4.67-6.82-22.75-7.95-32.9-10a18.3,18.3,0,0,1-9.96-5.13c-4.31-4.56-6.09-12.28-2.97-24.72,0,0,.66,7.17,7.66,14a10.632,10.632,0,0,0,5.33,2.72C40.2,17.98,51.6,15.35,64,15.35s23.8,2.63,32.84,7.87a10.632,10.632,0,0,0,5.33-2.72c7-6.83,7.66-14,7.66-14C112.95,18.94,111.17,26.66,106.86,31.22Z" fill="#db8758"/>
      <g>
        <circle cx="86.694" cy="56.441" r="11" fill="#eaeaf0"/>
        <circle cx="86.694" cy="56.442" r="3" fill="#bdbdc6"/>
        <circle cx="41.306" cy="56.441" r="11" fill="#eaeaf0"/>
        <circle cx="41.306" cy="56.442" r="3" fill="#bdbdc6"/>
      </g>
      <path d="M70.532,72.534,65.858,84.261a2,2,0,0,1-3.716,0L57.468,72.534a3,3,0,0,1,2.787-4.111h7.49A3,3,0,0,1,70.532,72.534Z" fill="#db8758"/>
    </g>
    <g>
      <path d="M114.123,77.947a1.749,1.749,0,0,0-2.223,1.088q-.27.791-.561,1.575a1.751,1.751,0,0,0,3.284,1.214q.3-.825.588-1.654A1.75,1.75,0,0,0,114.123,77.947Z" fill="#072130"/>
      <path d="M109.167,31.205c4.346-5.592,5.144-14.032,2.36-25.131a1.75,1.75,0,0,0-3.439.259c-.006.065-.735,6.665-7.143,12.917a8.461,8.461,0,0,1-3.845,2.1,55.5,55.5,0,0,0-10.02-4.34A1.75,1.75,0,0,0,86,20.343a51.6,51.6,0,0,1,9.961,4.391,1.752,1.752,0,0,0,1.257.194,12.335,12.335,0,0,0,6.173-3.176,29.744,29.744,0,0,0,6-8.2c.881,7.336-.39,12.861-3.806,16.473a16.553,16.553,0,0,1-9.029,4.613c-2.164.437-4.723.836-7.432,1.258C79.633,37.372,69,39.029,64,43.7c-5-4.67-15.633-6.327-25.122-7.806-2.709-.422-5.268-.821-7.43-1.258a16.563,16.563,0,0,1-9.036-4.617c-3.412-3.609-4.682-9.133-3.8-16.469a29.741,29.741,0,0,0,5.994,8.2,12.344,12.344,0,0,0,6.176,3.178,1.752,1.752,0,0,0,1.257-.194C40.654,19.74,51.706,17.1,64,17.1a77.2,77.2,0,0,1,14.125,1.256,1.75,1.75,0,1,0,.642-3.44A80.65,80.65,0,0,0,64,13.6c-12.62,0-24.046,2.679-33.1,7.754a8.485,8.485,0,0,1-3.848-2.106C20.647,13,19.918,6.4,19.913,6.339a1.75,1.75,0,0,0-3.44-.265c-2.785,11.1-1.985,19.543,2.359,25.131C12.424,38.767,9.17,48.217,9.17,59.33c0,29.559,23.951,63.92,54.83,63.92,19.42,0,38.482-14.3,48.563-36.43a1.75,1.75,0,1,0-3.185-1.451C99.864,106.255,82.052,119.75,64,119.75c-28.908,0-51.33-32.479-51.33-60.42,0-10.123,2.893-18.725,8.6-25.6a20.412,20.412,0,0,0,8.546,4.113C24.174,42.744,21,50.2,21,58.9a28.929,28.929,0,0,0,5.449,17.109,1.75,1.75,0,1,0,2.815-2.079A25.409,25.409,0,0,1,24.5,58.9c0-8.938,3.535-16.067,9.955-20.167,1.244.206,2.545.409,3.884.618,9.351,1.458,20.988,3.271,24.217,7.988a1.75,1.75,0,0,0,2.888,0c3.229-4.717,14.866-6.53,24.217-7.988,1.339-.209,2.64-.412,3.884-.618,6.42,4.1,9.955,11.229,9.955,20.167,0,13.094-9.2,23.35-20.95,23.35a18.61,18.61,0,0,1-12.117-4.742l1.724-4.326a4.75,4.75,0,0,0-4.412-6.509h-7.49a4.75,4.75,0,0,0-4.412,6.509l1.724,4.326A18.61,18.61,0,0,1,45.45,82.25a19.611,19.611,0,0,1-11.314-3.54,1.75,1.75,0,1,0-2.008,2.867A23.1,23.1,0,0,0,45.45,85.75a21.7,21.7,0,0,0,13.474-4.838l1.593,4a3.749,3.749,0,0,0,6.966,0l1.593-4A21.7,21.7,0,0,0,82.55,85.75C96.26,85.75,107,73.956,107,58.9c0-8.7-3.174-16.156-8.818-21.055a20.427,20.427,0,0,0,8.547-4.112c5.709,6.873,8.6,15.475,8.6,25.6a59.237,59.237,0,0,1-2.006,14.991,1.75,1.75,0,1,0,3.385.888A62.7,62.7,0,0,0,118.83,59.33C118.83,48.217,115.576,38.766,109.167,31.205ZM64.232,83.613a.249.249,0,0,1-.464,0L61.3,77.431c-.015-.045-.034-.088-.053-.132l-2.157-5.413a1.25,1.25,0,0,1,1.161-1.713h7.49a1.25,1.25,0,0,1,1.161,1.713L66.749,77.3c-.019.044-.038.087-.053.132Z" fill="#072130"/>
      <path d="M88.548,103.7a46.719,46.719,0,0,1-6.652,4.845,1.75,1.75,0,1,0,1.8,3,50.327,50.327,0,0,0,7.152-5.207,1.75,1.75,0,1,0-2.3-2.643Z" fill="#072130"/>
      <path d="M99.444,56.441a12.75,12.75,0,1,0-12.75,12.75A12.765,12.765,0,0,0,99.444,56.441Zm-22,0a9.25,9.25,0,1,1,9.25,9.25A9.26,9.26,0,0,1,77.444,56.441Z" fill="#072130"/>
      <path d="M91.444,56.441a4.75,4.75,0,1,0-4.75,4.75A4.756,4.756,0,0,0,91.444,56.441Zm-6,0a1.25,1.25,0,1,1,1.25,1.25A1.251,1.251,0,0,1,85.444,56.441Z" fill="#072130"/>
      <path d="M41.306,69.191a12.75,12.75,0,1,0-12.75-12.75A12.764,12.764,0,0,0,41.306,69.191Zm0-22a9.25,9.25,0,1,1-9.25,9.25A9.26,9.26,0,0,1,41.306,47.191Z" fill="#072130"/>
      <path d="M41.306,61.191a4.75,4.75,0,1,0-4.75-4.75A4.755,4.755,0,0,0,41.306,61.191Zm0-6a1.25,1.25,0,1,1-1.25,1.25A1.251,1.251,0,0,1,41.306,55.191Z" fill="#072130"/>
    </g>
  </g>
</svg>
